<?xml version="1.0" standalone="no"?>
<!DOCTYPE svg PUBLIC "-//W3C//DTD SVG 20010904//EN"
 "http://www.w3.org/TR/2001/REC-SVG-20010904/DTD/svg10.dtd">
<svg version="1.0" xmlns="http://www.w3.org/2000/svg"
 width="109.000000pt" height="94.000000pt" viewBox="0 0 109.000000 94.000000"
 preserveAspectRatio="xMidYMid meet">

<g transform="translate(0.000000,94.000000) scale(0.100000,-0.100000)"
fill="#000000" stroke="none">
<path d="M207 925 c-22 -7 -50 -24 -64 -37 -52 -49 -53 -53 -53 -406 0 -326 0
-329 23 -363 12 -18 38 -44 56 -56 34 -23 38 -23 358 -23 361 0 370 1 419 66
l29 37 3 391 3 390 -63 -60 c-35 -32 -145 -138 -246 -234 -101 -96 -187 -176
-192 -178 -6 -2 -7 30 -3 77 l6 81 -42 0 -41 0 0 -130 0 -130 47 0 c48 0 48 0
175 127 90 90 129 123 133 112 3 -8 4 -91 3 -184 l-3 -170 -235 0 -235 0 0
235 0 235 206 3 c191 2 208 4 224 22 18 20 17 20 -228 20 l-247 0 0 -280 0
-280 280 0 280 0 0 45 0 45 45 0 45 0 0 45 c0 41 2 45 25 45 25 0 25 -1 25
-87 0 -109 -21 -162 -73 -186 -30 -15 -75 -17 -331 -17 -330 0 -350 3 -386 62
-19 31 -20 50 -20 341 0 340 2 350 63 387 24 15 50 20 110 20 75 0 77 0 77 25
0 24 -2 25 -67 25 -38 -1 -85 -7 -106 -15z m724 -508 c-5 -5 -17 -7 -25 -4
-14 5 -16 30 -16 164 0 149 1 158 23 181 l22 24 3 -178 c1 -104 -2 -182 -7
-187z m-81 88 l0 -185 -25 0 -25 0 0 165 c0 143 2 168 18 184 9 11 20 20 25
20 4 1 7 -82 7 -184z"/>
</g>
</svg>
